<svg xmlns="http://www.w3.org/2000/svg" width="1095" viewBox="0 0 1095 724.5" height="724.5" version="1.0"><defs><clipPath id="a"><path d="M 0.378906 0 L 1094.621094 0 L 1094.621094 724 L 0.378906 724 Z M 0.378906 0"/></clipPath><clipPath id="b"><path d="M 54 0 L 1094.621094 0 L 1094.621094 724 L 54 724 Z M 54 0"/></clipPath><clipPath id="c"><path d="M 1172.84375 -135.746094 L 1068.910156 878.992188 L 54.175781 775.0625 L 158.105469 -239.675781 Z M 1172.84375 -135.746094"/></clipPath><clipPath id="d"><path d="M 1172.84375 -135.746094 L 1068.910156 878.992188 L 54.175781 775.0625 L 158.105469 -239.675781 Z M 1172.84375 -135.746094"/></clipPath><clipPath id="e"><path d="M 140 0 L 1094.621094 0 L 1094.621094 724 L 140 724 Z M 140 0"/></clipPath><clipPath id="f"><path d="M 1258.742188 -135.746094 L 1154.8125 878.992188 L 140.074219 775.0625 L 244.003906 -239.675781 Z M 1258.742188 -135.746094"/></clipPath><clipPath id="g"><path d="M 1258.742188 -135.746094 L 1154.8125 878.992188 L 140.074219 775.0625 L 244.003906 -239.675781 Z M 1258.742188 -135.746094"/></clipPath></defs><g clip-path="url(#a)"><path fill="#FFF" d="M 0.378906 0 L 1094.621094 0 L 1094.621094 731.496094 L 0.378906 731.496094 Z M 0.378906 0"/><path fill="#FFF" d="M 0.378906 0 L 1094.621094 0 L 1094.621094 724 L 0.378906 724 Z M 0.378906 0"/><path fill="#262626" d="M 0.378906 0 L 1094.621094 0 L 1094.621094 724 L 0.378906 724 Z M 0.378906 0"/></g><g clip-path="url(#b)"><g clip-path="url(#c)"><g clip-path="url(#d)"><path fill="#79C7FF" d="M 1120.878906 371.621094 L 1172.839844 -135.742188 L 613.503906 319.652344 L 54.175781 775.054688 L 561.539062 827.019531 L 1068.914062 878.984375 Z M 1120.878906 371.621094"/></g></g></g><g clip-path="url(#e)"><g clip-path="url(#f)"><g clip-path="url(#g)"><path fill="#FF5757" d="M 1206.777344 371.621094 L 1258.742188 -135.742188 L 699.402344 319.652344 L 140.074219 775.054688 L 647.441406 827.019531 L 1154.8125 878.984375 Z M 1206.777344 371.621094"/></g></g></g></svg>